<?xml version="1.0" standalone="no"?><!DOCTYPE svg PUBLIC "-//W3C//DTD SVG 1.1//EN" "http://www.w3.org/Graphics/SVG/1.1/DTD/svg11.dtd"><svg class="icon" height="512" viewBox="0 0 1024 1024" version="1.1" xmlns="http://www.w3.org/2000/svg"><path d="M846.421333 780.736a89.557333 89.557333 0 0 0-89.365333 89.536 89.557333 89.557333 0 0 0 89.365333 89.749333 89.408 89.408 0 0 0 89.301334-89.749333 89.493333 89.493333 0 0 0-89.301334-89.536z m0 137.92a48.277333 48.277333 0 0 1-48.149333-48.384 48.128 48.128 0 0 1 96.234667 0 48.213333 48.213333 0 0 1-48.085334 48.384zM443.328 780.736a89.621333 89.621333 0 0 0-89.450667 89.536 89.621333 89.621333 0 0 0 89.450667 89.749333c49.216 0 89.301333-40.085333 89.301333-89.749333a89.536 89.536 0 0 0-89.301333-89.536z m0 137.92a48.213333 48.213333 0 0 1-48.149333-48.384 48.128 48.128 0 1 1 96.298666 0 48.277333 48.277333 0 0 1-48.149333 48.384zM867.242667 589.653333a20.629333 20.629333 0 0 0 19.776-14.357333l114.752-360.085333a21.205333 21.205333 0 0 0-3.157334-18.56 20.16 20.16 0 0 0-16.618666-8.448H246.272L209.002667 78.058667A20.522667 20.522667 0 0 0 189.504 64H42.048a20.650667 20.650667 0 1 0-0.021333 41.344h132.693333l156.864 463.402667-59.221333 157.546666a20.48 20.48 0 0 0 2.24 19.136 20.885333 20.885333 0 0 0 17.024 8.938667h637.653333a20.714667 20.714667 0 0 0 20.544-20.672 20.565333 20.565333 0 0 0-20.544-20.608h-608l46.464-123.434667h499.498667zM260.266667 229.546667h693.546666l-101.717333 318.741333H368.149333L260.266667 229.546667z" /></svg>